<svg width="19" height="19" viewBox="0 0 19 19" fill="none" xmlns="http://www.w3.org/2000/svg">
<path d="M9.49556 1.60607C13.8471 1.60607 17.3954 5.15385 17.3954 9.50177C17.3954 13.8494 13.8471 17.3975 9.49556 17.3975C5.14988 17.3975 1.60156 13.8494 1.60156 9.50177C1.60156 5.15385 5.14988 1.60607 9.49556 1.60607Z" stroke="#231F20" stroke-width="0.0213364"/>
<path fill-rule="evenodd" clip-rule="evenodd" d="M9.4972 -1.39077e-07C14.7334 -1.39077e-07 19 4.26915 19 9.50158C19 14.7311 14.7334 19 9.4972 19C4.26664 19 0 14.7311 0 9.50158C0 4.26915 4.26664 -1.39077e-07 9.4972 -1.39077e-07Z" fill="#2E3191"/>
<path fill-rule="evenodd" clip-rule="evenodd" d="M9.49701 0.502918C14.4574 0.502918 18.4998 4.54474 18.4998 9.50146C18.4998 14.4553 14.4574 18.5 9.49701 18.5C4.5422 18.5 0.5 14.4553 0.5 9.50146C0.5 4.54474 4.5422 0.502918 9.49701 0.502918Z" fill="white"/>
<path fill-rule="evenodd" clip-rule="evenodd" d="M9.50068 2.70922C13.2433 2.70922 16.2946 5.76028 16.2946 9.50207C16.2946 13.2407 13.2433 16.2949 9.50068 16.2949C5.76123 16.2949 2.70703 13.2407 2.70703 9.50207C2.70703 5.76028 5.76123 2.70922 9.50068 2.70922Z" fill="#2E3191"/>
<path fill-rule="evenodd" clip-rule="evenodd" d="M15.5916 9.93817C15.1159 10.3471 14.5853 10.4684 14.1309 10.3138C13.4643 10.0896 12.8795 9.32012 12.24 8.32936C12.034 9.83216 12.6249 11.0561 13.4522 11.5044C13.4189 11.9773 13.1793 12.4439 12.8552 12.8224L12.8068 12.359C12.6038 12.6194 12.3976 12.8528 12.1916 13.0254L12.0613 13.4859C11.831 13.6194 11.5975 13.7011 11.3886 13.7164C10.1976 13.801 9.67333 12.3984 9.67966 11.4259C10.4038 11.3561 11.2644 11.6257 11.9825 12.0075C11.8188 10.6714 11.0553 9.86839 9.87954 9.61991C9.9221 9.18373 9.87346 8.59 9.82483 8.15042C9.72805 7.24451 9.40682 6.38407 9.22493 5.92966C8.87939 5.05098 8.78844 4.45725 8.34296 4.4361C8.00981 4.42078 7.7219 4.95105 7.36128 5.5511C7.10061 5.9902 6.78862 6.40838 6.58241 6.9175C6.29158 7.64446 6.08562 8.33228 6.04939 8.67169C5.98568 9.02618 5.9492 9.63814 5.93704 10.0169C4.84619 10.3743 3.84603 12.1378 4.33407 13.4468C4.88266 12.8679 5.45824 12.2924 6.12793 12.1439C6.25511 12.8195 6.68868 13.6921 7.22778 14.298C7.94902 15.1101 8.86747 15.51 9.72172 15.5494C11.0159 15.6129 12.328 15.104 13.1854 14.0981L13.6674 13.9314C13.8583 13.7558 14.0431 13.4346 14.225 13.0558L13.743 13.2345C13.9614 12.777 14.1039 12.2559 14.1491 11.6744C14.9097 11.6257 15.6674 10.8774 15.5916 9.93817Z" fill="#ED3224"/>
<path fill-rule="evenodd" clip-rule="evenodd" d="M7.1875 8.31043C7.79032 7.77433 8.22972 7.76217 8.94196 8.45898C8.79631 7.49545 8.50256 6.81371 8.16309 6.80472C7.71785 6.79256 7.29644 7.67124 7.1875 8.31043Z" fill="white"/>
<path fill-rule="evenodd" clip-rule="evenodd" d="M11.6193 3.41124C12.6798 3.50534 13.4708 4.44747 13.3798 5.51093C13.286 6.57147 12.3437 7.36213 11.2798 7.2712C10.216 7.17735 9.42542 6.23497 9.51928 5.17176C9.61315 4.11122 10.5557 3.3174 11.6193 3.41124Z" fill="white"/>
<path d="M11.6193 3.41124C12.6798 3.50534 13.4708 4.44747 13.3798 5.51093C13.286 6.57147 12.3437 7.36213 11.2798 7.2712C10.216 7.17735 9.42542 6.23497 9.51928 5.17176C9.61315 4.11122 10.5557 3.3174 11.6193 3.41124Z" stroke="#2E3191" stroke-width="0.135313"/>
<path fill-rule="evenodd" clip-rule="evenodd" d="M10.1745 3.88748C10.1721 3.88942 10.1699 3.89161 10.168 3.89355H10.1777C10.1777 3.89355 10.1745 3.89064 10.1745 3.88748Z" fill="#ED3224"/>
<path fill-rule="evenodd" clip-rule="evenodd" d="M10.168 3.8938L10.1694 3.89453C10.1699 3.89429 10.1702 3.89404 10.1704 3.8938H10.168Z" fill="#ED3224"/>
<path fill-rule="evenodd" clip-rule="evenodd" d="M12.8103 6.32335L12.4952 6.42036L12.2739 6.48698L12.0225 6.1021L11.9014 5.91732L12.0225 5.66593L12.2284 5.24482L12.4952 5.17504L12.8103 5.09335L13.0922 5.64769L12.8103 6.32335ZM12.0225 6.70215L11.7589 7.02333L11.4345 6.9961L11.0223 6.96279L10.8801 6.71723L10.7225 6.45051L10.8801 6.27789L11.1648 5.96303L11.4345 5.9871L11.789 6.01749L12.0225 6.36882L12.1436 6.5536L12.0225 6.70215ZM10.4073 6.2599L9.91346 6.04472L9.77997 5.2599L10.2437 4.77509L10.4073 4.86311L10.8013 5.07803L10.8801 5.33867L11.0345 5.86602L10.8801 6.04156L10.6072 6.34451L10.4073 6.2599ZM10.3407 4.05105L10.4073 4.01774L10.8801 3.78457L10.9195 3.76318L11.4345 3.98443L11.5891 4.05105L11.5437 4.59955L11.4345 4.65693L10.8801 4.95404L10.8618 4.96303L10.4073 4.70847L10.2892 4.64502L10.3407 4.05105ZM11.7256 4.06928L12.0225 3.97543L12.3469 3.87526L12.4952 4.01774L12.8405 4.34791L12.7921 4.96011L12.4952 5.04181L12.1951 5.12058L12.0225 4.94796L11.6769 4.60563L11.7256 4.06928ZM13.0618 4.26914L12.9256 4.26306L12.4952 3.85119L12.4164 3.77242V3.66325C12.2921 3.59056 12.1618 3.53293 12.0225 3.49063C11.895 3.45124 11.7589 3.42401 11.6225 3.41161C11.559 3.40577 11.4953 3.40577 11.4345 3.40577C11.2407 3.40577 11.0559 3.43617 10.8801 3.49355C10.8618 3.49671 10.8436 3.50254 10.8256 3.50862L10.8528 3.67225L10.4073 3.8935L10.2892 3.95404L10.1695 3.89423C9.81012 4.212 9.56768 4.66058 9.52245 5.17213C9.52245 5.18112 9.52245 5.19036 9.51953 5.19936L9.66203 5.27813L9.7982 6.09311C9.77413 6.13857 9.75565 6.18112 9.72841 6.22343C9.88623 6.52637 10.1194 6.787 10.4073 6.97178C10.5255 7.04764 10.6559 7.1111 10.7889 7.16264L10.8801 7.12326L11.0165 7.06272L11.4345 7.09894L11.7436 7.12642L11.8771 7.23242C11.9254 7.22027 11.9741 7.20811 12.0225 7.19303C12.189 7.14149 12.3495 7.06563 12.4952 6.97178C12.671 6.8597 12.8254 6.72039 12.956 6.55992L12.9044 6.36882L13.1739 5.69316L13.3589 5.67808C13.3711 5.62362 13.3769 5.566 13.383 5.51154C13.4226 5.05712 13.2984 4.62362 13.0618 4.26914Z" fill="#ED3224"/>
<path fill-rule="evenodd" clip-rule="evenodd" d="M16.6219 13.8488L15.9401 14.7396L15.9916 13.3973L15.7219 13.1882L14.9856 14.1306L14.625 14.594L14.9158 14.8213L14.9856 14.7335L15.5522 13.9852L15.5067 15.3122L15.7793 15.5273L16.9127 14.0761L16.6219 13.8488Z" fill="#2E3191"/>
<path fill-rule="evenodd" clip-rule="evenodd" d="M5.23405 16.4098L5.43709 16.1555L4.5522 15.4373L4.68862 15.2707L5.5492 15.9676L5.62215 16.0281L5.84003 15.7555L5.5492 15.519L4.5612 14.7191L4.52156 14.7682L4.5522 14.8071L4.47682 14.8234L4.08848 15.3009L3.625 15.8735L4.08848 16.2493L4.91282 16.916L5.13727 16.6371L4.19766 15.8766L4.34624 15.6918L5.23405 16.4098Z" fill="#2E3191"/>
<path fill-rule="evenodd" clip-rule="evenodd" d="M4.24645 14.4191L4.08572 14.4524L3.03718 14.6797L2.98562 14.6128L3.52813 13.501L3.22223 13.1071L2.50391 14.6009L2.9314 15.1523L4.08572 14.9068L4.47406 14.8231L4.5188 14.768L4.24645 14.4191Z" fill="#2E3191"/>
<path fill-rule="evenodd" clip-rule="evenodd" d="M8.3819 17.5091L8.05459 17.4605L8.3819 16.9939L8.41546 16.9455L8.50616 16.9577L8.71212 17.5546L8.3819 17.5091ZM8.3819 16.5911L8.16378 16.5577L7.31244 17.7333L7.17578 17.9212L7.31244 17.9395L7.68789 17.9939L7.84863 17.7605L8.3819 17.8364L8.82155 17.8998L8.91517 18.1665L9.4212 18.2363L8.86094 16.6577L8.3819 16.5911Z" fill="#2E3191"/>
<path fill-rule="evenodd" clip-rule="evenodd" d="M11.4787 17.3974L11.4454 17.4005L11.0301 17.4611C11.0422 17.552 11.0362 17.6125 11.0121 17.6429C10.997 17.6641 10.9605 17.6823 10.9029 17.6945C10.8455 17.7095 10.7334 17.7275 10.5605 17.7518C10.421 17.773 10.3242 17.7822 10.2668 17.7851C10.2121 17.7851 10.1695 17.7791 10.1423 17.7611C10.1121 17.746 10.0907 17.7156 10.0727 17.6701C10.0574 17.6276 10.0423 17.5491 10.027 17.4367C10.0119 17.3247 10.0059 17.243 10.009 17.1914C10.0119 17.137 10.0241 17.1005 10.0484 17.0733C10.0664 17.0521 10.1029 17.0368 10.1574 17.0217C10.2089 17.0096 10.3059 16.9913 10.4484 16.9731C10.5878 16.9519 10.6938 16.94 10.7665 16.9369C10.836 16.9339 10.8818 16.94 10.9 16.9519C10.9151 16.9612 10.9241 16.9731 10.9301 16.9884C10.9362 17.0066 10.9455 17.0368 10.9545 17.0854L11.4029 17.0246C11.3968 16.9823 11.3936 16.958 11.3936 16.949C11.3756 16.8277 11.3516 16.7399 11.3151 16.6825C11.2789 16.6218 11.2241 16.5824 11.1514 16.5612C11.097 16.543 11.0272 16.5369 10.9391 16.5401C10.8514 16.543 10.7149 16.5581 10.5241 16.5855C10.1454 16.64 9.89376 16.6884 9.77242 16.7338C9.65132 16.7793 9.5757 16.852 9.54846 16.9519C9.5363 16.9945 9.53314 17.055 9.5363 17.1309C9.53922 17.2097 9.55454 17.3307 9.57886 17.5036C9.60293 17.676 9.62409 17.7973 9.63941 17.8639C9.65764 17.9459 9.68464 18.0064 9.71819 18.0519C9.75126 18.0942 9.79674 18.1275 9.85437 18.1489C9.91808 18.17 10.0119 18.179 10.1333 18.1729C10.2546 18.1671 10.4545 18.1428 10.7334 18.1034C10.9997 18.0669 11.1879 18.0275 11.291 17.9852C11.3574 17.9609 11.4089 17.9276 11.4454 17.8853C11.4637 17.8639 11.4787 17.8367 11.4909 17.8095C11.515 17.7397 11.5181 17.6488 11.5031 17.5337C11.4999 17.5155 11.4909 17.4671 11.4787 17.3974Z" fill="#2E3191"/>
<path fill-rule="evenodd" clip-rule="evenodd" d="M6.92157 16.8183C6.90018 16.8637 6.87902 16.897 6.86394 16.9153C6.84571 16.9335 6.82479 16.9425 6.80339 16.9454C6.78516 16.9486 6.76692 16.9454 6.74576 16.9396C6.72436 16.9303 6.66382 16.906 6.56387 16.8606L6.47001 16.8183L5.98513 16.5909L6.13954 16.2608L6.47001 16.4122L6.71537 16.5275C6.80947 16.5729 6.86686 16.6002 6.88802 16.6121C6.9065 16.6213 6.92157 16.6335 6.93373 16.6486C6.94857 16.6668 6.95489 16.6879 6.95489 16.7152C6.95173 16.7395 6.93957 16.776 6.92157 16.8183ZM7.12146 17.2365C7.16693 17.2241 7.20632 17.2 7.24256 17.1577C7.26396 17.1334 7.28827 17.094 7.31551 17.0424C7.33058 17.0152 7.34566 16.9848 7.36098 16.9515C7.41545 16.8333 7.44585 16.7456 7.45193 16.6819C7.458 16.6182 7.44293 16.5605 7.40645 16.5032C7.37922 16.4669 7.34882 16.4365 7.31551 16.4122C7.30943 16.4062 7.30043 16.4001 7.29411 16.3972C7.24888 16.3699 7.1093 16.3031 6.87902 16.1941L6.47001 16.003L5.88519 15.7305L5.54864 16.4548L5.25781 17.0789L5.54864 17.2151L5.66707 17.2695L5.82756 16.9274L6.40654 17.1971C6.43062 17.209 6.45177 17.2182 6.47001 17.2272C6.51864 17.2515 6.55488 17.2695 6.56995 17.2817C6.59743 17.2999 6.61251 17.3181 6.61859 17.3425C6.62758 17.3665 6.62442 17.394 6.61542 17.4302C6.60643 17.4635 6.58503 17.518 6.5488 17.5939L6.51548 17.6666L6.92157 17.8545L6.97896 17.7303C7.03367 17.6121 7.06699 17.5333 7.0789 17.4939C7.08839 17.4545 7.08839 17.4181 7.0789 17.3818C7.06091 17.3213 7.01252 17.2695 6.92741 17.2211C7.00644 17.2454 7.06991 17.2486 7.12146 17.2365Z" fill="#2E3191"/>
<path fill-rule="evenodd" clip-rule="evenodd" d="M12.8938 16.6247C12.8817 16.6368 12.8666 16.649 12.8484 16.6612C12.8272 16.6702 12.7667 16.6974 12.6665 16.7399L12.424 16.8369L12.0758 16.9792L11.9362 16.6398L12.424 16.4428L12.5271 16.4005C12.6242 16.3643 12.685 16.34 12.7061 16.3339C12.727 16.3249 12.7455 16.3217 12.7638 16.3249C12.7878 16.3249 12.809 16.3368 12.8272 16.3551C12.8455 16.3733 12.8605 16.4066 12.8788 16.4489C12.897 16.4975 12.9089 16.5308 12.9089 16.5581C12.9121 16.5824 12.906 16.6035 12.8938 16.6247ZM13.4818 16.7973C13.4604 16.7611 13.4334 16.7368 13.3999 16.7188C13.3877 16.7127 13.3726 16.7066 13.3576 16.7035C13.3092 16.6913 13.2484 16.6974 13.1788 16.7188C13.2515 16.6762 13.297 16.6339 13.3213 16.5885C13.3454 16.5459 13.3547 16.5004 13.3454 16.446C13.3393 16.3944 13.3182 16.3188 13.2756 16.2189C13.2272 16.1005 13.1818 16.0159 13.1424 15.9673C13.1001 15.9218 13.0453 15.8914 12.9816 15.8824C12.9242 15.8734 12.8727 15.8763 12.8243 15.8885C12.7786 15.9038 12.6456 15.9551 12.424 16.0429C12.415 16.046 12.4029 16.0521 12.3939 16.055L11.4487 16.437L11.3789 16.4642L11.4487 16.6339L11.9362 17.8428L12.3545 17.6731L12.2152 17.3217L12.424 17.2369L12.8061 17.0854C12.8938 17.0489 12.9515 17.0278 12.9787 17.0217C13.0091 17.0156 13.0332 17.0156 13.0575 17.0246C13.0789 17.0368 13.1001 17.0579 13.1183 17.0883C13.1363 17.1187 13.1635 17.1732 13.1939 17.2488L13.2241 17.3217L13.3576 17.27L13.6362 17.155L13.5849 17.0278C13.5363 16.9096 13.503 16.8309 13.4818 16.7973Z" fill="#2E3191"/>
<path fill-rule="evenodd" clip-rule="evenodd" d="M15.0043 15.1553L14.9799 15.122L14.5738 14.625L14.2225 14.9098L14.6529 15.44C14.6801 15.4736 14.7134 15.5188 14.7528 15.5735C14.789 15.6248 14.8165 15.6644 14.8284 15.6885C14.8374 15.7157 14.8438 15.74 14.8438 15.7644C14.8406 15.8037 14.8165 15.8431 14.7769 15.8886C14.7348 15.9341 14.6529 16.0065 14.5318 16.1035C14.38 16.2246 14.2769 16.3005 14.2164 16.3248C14.1558 16.352 14.1014 16.3459 14.0559 16.3065C14.0226 16.2793 13.9557 16.2066 13.8558 16.0855L13.4256 15.5553L13.3529 15.6158L13.0742 15.84L13.3529 16.1855L13.5044 16.3702C13.6133 16.5066 13.686 16.5915 13.7196 16.6277C13.7497 16.661 13.7891 16.7004 13.8344 16.7398C13.9528 16.8429 14.0831 16.858 14.2315 16.7884C14.2983 16.7551 14.371 16.7097 14.4498 16.6549C14.5318 16.5976 14.6407 16.5127 14.78 16.4006C14.8559 16.3401 14.9225 16.2854 14.9799 16.2368C15.0619 16.1641 15.1256 16.1067 15.1679 16.0641C15.2435 15.9885 15.2924 15.9187 15.3133 15.8582C15.3559 15.749 15.3466 15.6401 15.28 15.5341C15.2435 15.4704 15.1499 15.343 15.0043 15.1553Z" fill="#2E3191"/>
<path fill-rule="evenodd" clip-rule="evenodd" d="M4.06965 3.76674C4.06357 3.78497 4.05457 3.80004 4.04242 3.81804C4.03026 3.83335 3.98478 3.8849 3.90916 3.96367L3.63632 4.24546L3.46684 4.42416L3.203 4.1696L3.63632 3.72127L3.64532 3.71203C3.71827 3.63642 3.7635 3.59095 3.77882 3.57879C3.79706 3.56372 3.81189 3.55156 3.82721 3.54549C3.85153 3.53649 3.8756 3.53649 3.89992 3.54865C3.92132 3.55764 3.95147 3.57879 3.9877 3.6121C4.02126 3.64857 4.04533 3.6758 4.05749 3.70012C4.06965 3.72127 4.07281 3.74242 4.06965 3.76674ZM4.86652 3.85451C4.7729 3.76357 4.70894 3.70911 4.67563 3.6848C4.66979 3.68188 4.66663 3.6758 4.66055 3.67264C4.6304 3.65757 4.60292 3.64857 4.57252 3.64541C4.50906 3.6425 4.44219 3.67264 4.36948 3.73634C4.41835 3.66973 4.44219 3.6121 4.44535 3.56056C4.45143 3.51218 4.43951 3.46671 4.41203 3.42125C4.3848 3.37578 4.33325 3.31524 4.25446 3.23963C4.1606 3.15161 4.08765 3.09399 4.03026 3.06676C3.96971 3.03953 3.91208 3.03661 3.84545 3.05169C3.7939 3.06676 3.74867 3.09107 3.70903 3.12438C3.69395 3.13654 3.66964 3.15769 3.63632 3.191C3.57869 3.24862 3.49383 3.33347 3.38173 3.44848L3.06658 3.77573L2.62109 4.23622L3.06658 4.66657L3.63632 5.21799L3.69079 5.26953L4.00594 4.94544L3.73311 4.68164L4.17592 4.22115C4.2423 4.15453 4.28486 4.11198 4.30893 4.09399C4.33325 4.07576 4.35756 4.06652 4.38164 4.06652C4.4062 4.06968 4.43319 4.07867 4.46358 4.10007C4.49374 4.11806 4.53945 4.15745 4.59684 4.21507L4.65447 4.26953L4.66055 4.26661L4.91199 4.00598L4.96646 3.9486L4.91199 3.89705L4.86652 3.85451Z" fill="#ED3224"/>
<path fill-rule="evenodd" clip-rule="evenodd" d="M3.35344 5.19924C3.30481 5.16301 3.21095 5.10539 3.06845 5.02345C3.03222 5.00546 2.99282 4.98407 2.95319 4.96L2.35037 4.63882L2.13833 5.03853L2.74114 5.35995C2.77762 5.3811 2.82601 5.40833 2.88364 5.44164C2.93835 5.47495 2.9775 5.50218 2.9989 5.52041C3.0169 5.53865 3.03222 5.5598 3.04121 5.58411C3.05337 5.62034 3.04729 5.66581 3.02906 5.72343C3.0079 5.78105 2.95951 5.88098 2.88656 6.01737C2.79586 6.18684 2.72923 6.296 2.68351 6.34439C2.63512 6.39301 2.58357 6.40809 2.5291 6.38985C2.48679 6.37794 2.39876 6.33855 2.25943 6.26586L2.05322 6.15669L1.65637 5.94468L1.52019 6.19608L1.44141 6.34439L1.52019 6.38693L2.04422 6.66581C2.04738 6.66581 2.0503 6.66872 2.05322 6.66872C2.20204 6.7475 2.29882 6.79588 2.34137 6.81728C2.3866 6.83843 2.43524 6.85642 2.49287 6.87466C2.6412 6.92328 2.76862 6.88681 2.87756 6.76573C2.9262 6.70811 2.9775 6.63833 3.02906 6.55664C3.04121 6.53549 3.05337 6.51409 3.06845 6.49002C3.111 6.41417 3.16839 6.31424 3.2321 6.19608C3.3442 5.98407 3.41983 5.82943 3.45655 5.73242C3.4957 5.6325 3.51393 5.55081 3.51077 5.48394C3.50786 5.36894 3.45655 5.27509 3.35344 5.19924Z" fill="#ED3224"/>
<path fill-rule="evenodd" clip-rule="evenodd" d="M2.05147 9.4224L2.36686 9.43164L2.38169 8.95583L2.05147 8.94659L1.51844 8.92544L0.897144 8.90429L0.878906 9.3801L1.51844 9.40417L2.05147 9.4224Z" fill="#ED3224"/>
<path fill-rule="evenodd" clip-rule="evenodd" d="M2.05342 10.0988L1.5204 10.1625L1.27796 10.1929L1.19601 9.53834L0.820312 9.58381L1.04135 11.3652L1.41729 11.3198L1.33534 10.6623L1.5204 10.6441L2.05342 10.5775L2.4352 10.532L2.37781 10.0594L2.05342 10.0988Z" fill="#ED3224"/>
<path fill-rule="evenodd" clip-rule="evenodd" d="M2.26983 7.52271C2.264 7.54702 2.24868 7.62264 2.21828 7.75296L2.07603 8.37707L2.05463 8.371L1.83675 8.32261L1.979 7.69849C2.02156 7.52563 2.04563 7.43178 2.05171 7.41671L2.05463 7.41354C2.07603 7.3744 2.11542 7.36224 2.17305 7.37732C2.2336 7.38947 2.26691 7.41671 2.27299 7.45901C2.27299 7.47724 2.27299 7.4984 2.26983 7.52271ZM1.68793 7.63188L1.54568 8.256L1.5216 8.24992L1.31539 8.20153L1.45765 7.58033C1.49121 7.44102 1.51236 7.36224 1.5216 7.34693V7.34401C1.54568 7.30754 1.58215 7.29538 1.63662 7.31046C1.69425 7.32261 1.72465 7.34693 1.73048 7.38631C1.73364 7.41354 1.72149 7.49548 1.68793 7.63188ZM2.60638 7.08337C2.55799 7.03499 2.47604 6.9956 2.35786 6.96837C2.22144 6.93798 2.11834 6.94406 2.05463 6.98952C2.04563 6.99244 2.03955 6.99852 2.03347 7.0046C2.00308 7.03183 1.97608 7.07438 1.95177 7.13783C1.94569 7.05906 1.92453 7.00144 1.88198 6.95913C1.83942 6.91974 1.76696 6.8896 1.66069 6.86528C1.60939 6.85313 1.56391 6.84389 1.5216 6.84389C1.49704 6.84097 1.47297 6.84097 1.44865 6.84389C1.3971 6.85313 1.35187 6.87428 1.31223 6.91075C1.276 6.95014 1.24244 7.01384 1.21545 7.10744C1.20305 7.14999 1.16998 7.28031 1.11843 7.50156L0.878906 8.54386L1.5216 8.69217L2.05463 8.8135L2.32746 8.87695L2.56698 7.83489C2.62145 7.58933 2.65477 7.44102 2.6606 7.39239C2.67276 7.31362 2.67592 7.24992 2.66693 7.20445C2.6606 7.15607 2.63969 7.11668 2.60638 7.08337Z" fill="#ED3224"/>
<path fill-rule="evenodd" clip-rule="evenodd" d="M18.1296 9.75943C18.1238 9.65634 18.0934 9.58073 18.0447 9.52627C17.9781 9.4594 17.8628 9.42002 17.6963 9.4081C17.5477 9.39595 17.4388 9.4171 17.3721 9.46864C17.3296 9.49879 17.2994 9.54134 17.278 9.59872C17.2569 9.65634 17.2418 9.73828 17.2296 9.8472C17.2236 9.90166 17.2116 10.023 17.1902 10.2078C17.1691 10.3867 17.1538 10.5046 17.1511 10.5593C17.1448 10.632 17.1326 10.6775 17.1175 10.6986C17.1022 10.7169 17.0811 10.7259 17.0507 10.729H17.0266C16.966 10.723 16.9296 10.7047 16.9177 10.6714C16.9087 10.6471 16.9055 10.6199 16.9055 10.5805C16.9087 10.5411 16.9145 10.4261 16.9266 10.2352C16.9417 10.0534 16.9507 9.94421 16.957 9.9109C16.96 9.87759 16.9721 9.85036 16.9872 9.82921C16.9994 9.81097 17.0205 9.80173 17.0507 9.79566C17.0721 9.79274 17.0993 9.79274 17.1297 9.79274L17.1601 9.35632L17.0932 9.35024H17.0507C16.966 9.34732 16.8992 9.35024 16.8508 9.36556C16.7966 9.38379 16.754 9.42002 16.7175 9.47472C16.6842 9.52627 16.657 9.6048 16.6387 9.7108C16.6205 9.81413 16.6025 9.98068 16.5872 10.2017C16.5692 10.4684 16.56 10.6471 16.5631 10.747C16.5631 10.8382 16.575 10.9107 16.5962 10.9622C16.6176 11.0137 16.6509 11.056 16.6993 11.0896C16.7662 11.1319 16.869 11.1562 17.0086 11.1681H17.0507C17.1389 11.1713 17.2053 11.1652 17.2569 11.1501C17.3145 11.1319 17.3631 11.0957 17.3994 11.0441C17.4295 10.9987 17.4509 10.935 17.4689 10.8562C17.4842 10.7745 17.5025 10.6199 17.5268 10.3806C17.554 10.0957 17.5752 9.93813 17.5873 9.90166C17.6024 9.86252 17.6357 9.84428 17.6873 9.8472C17.7418 9.85036 17.7721 9.87467 17.7811 9.91698C17.7901 9.95928 17.7901 10.0777 17.7751 10.2685C17.7661 10.429 17.7571 10.5321 17.7478 10.5805C17.7418 10.6291 17.7325 10.6622 17.7204 10.6804C17.7084 10.6957 17.6963 10.7047 17.6812 10.7076C17.6661 10.7137 17.6357 10.7137 17.5934 10.7137L17.563 11.1501C17.5993 11.1531 17.6204 11.1562 17.6326 11.1562C17.7692 11.1652 17.866 11.1472 17.9266 11.1018C17.9871 11.0531 18.0297 10.9622 18.0601 10.829C18.0781 10.7412 18.0963 10.5926 18.1116 10.3743C18.1328 10.0655 18.1386 9.85936 18.1296 9.75943Z" fill="#ED3224"/>
<path fill-rule="evenodd" clip-rule="evenodd" d="M14.4907 3.35731C14.4724 3.35731 14.4544 3.35124 14.4359 3.33908C14.4179 3.33008 14.3603 3.29361 14.2694 3.23016L14.2149 3.19369L13.7483 2.86351L13.9574 2.56665L14.2149 2.74535L14.4785 2.93013C14.5634 2.99067 14.6149 3.02714 14.6331 3.04222C14.6482 3.05437 14.6633 3.06945 14.6725 3.08452C14.6847 3.10592 14.6876 3.12999 14.6815 3.1543C14.6725 3.17861 14.6575 3.21192 14.63 3.25131C14.5998 3.29361 14.5755 3.32109 14.5544 3.33616C14.5361 3.35124 14.512 3.35731 14.4907 3.35731ZM14.6876 3.83604C14.6815 3.77258 14.6421 3.7118 14.5665 3.65126C14.639 3.68749 14.7029 3.7028 14.7542 3.69964C14.8029 3.69356 14.8452 3.67557 14.8846 3.64202C14.8877 3.6391 14.8907 3.6391 14.8907 3.63594C14.9301 3.60263 14.9816 3.54209 15.0392 3.45724C15.0816 3.3967 15.118 3.34224 15.1392 3.29361C15.1574 3.26347 15.1696 3.23307 15.1754 3.209C15.1939 3.14822 15.1876 3.08768 15.1603 3.02714C15.1543 3.01207 15.1482 2.99991 15.1392 2.98459C15.1209 2.95128 15.0966 2.92405 15.0694 2.89998C15.0451 2.87859 14.9845 2.83604 14.8907 2.76967C14.8394 2.73003 14.7725 2.68481 14.6969 2.63011L14.2149 2.29386L13.7998 1.99991L12.9453 3.218L13.3181 3.47864L13.5331 3.16962L14.0573 3.53602C14.1329 3.58756 14.1845 3.62695 14.2059 3.6481C14.2088 3.65126 14.212 3.65418 14.2149 3.65734C14.2302 3.67557 14.2392 3.69356 14.2424 3.71496C14.2451 3.73903 14.2392 3.7665 14.2239 3.79957C14.221 3.80565 14.2181 3.81173 14.2149 3.81489C14.1998 3.8482 14.1694 3.89366 14.1303 3.95104L14.0846 4.01474L14.2149 4.10883L14.4481 4.27246L14.53 4.15722C14.6028 4.05413 14.6482 3.98143 14.6665 3.94496C14.6847 3.90874 14.6908 3.87251 14.6876 3.83604Z" fill="#ED3224"/>
<path fill-rule="evenodd" clip-rule="evenodd" d="M15.7229 5.20495C15.6864 5.19887 15.647 5.17164 15.6047 5.12909C15.5621 5.08679 15.4834 4.99585 15.3683 4.85362C15.2531 4.71115 15.1774 4.61122 15.1381 4.55068C15.1381 4.54752 15.1349 4.5446 15.1317 4.53852C15.0833 4.46267 15.0802 4.39313 15.1291 4.32943C15.1317 4.32627 15.1349 4.32335 15.1381 4.31727C15.1653 4.28688 15.2108 4.24458 15.2742 4.19619C15.3895 4.09919 15.4744 4.04448 15.523 4.02625C15.5743 4.00825 15.6229 4.01725 15.6682 4.05056C15.7078 4.08095 15.8046 4.19012 15.9561 4.37465C16.0896 4.53852 16.1684 4.64453 16.1985 4.69291C16.2258 4.73838 16.2347 4.78384 16.2258 4.82007C16.2197 4.85362 16.1985 4.88669 16.1623 4.92316C16.129 4.95963 16.0713 5.01409 15.9865 5.08071C15.9169 5.13517 15.8651 5.17456 15.826 5.19279C15.7893 5.20811 15.7562 5.21419 15.7229 5.20495ZM16.2532 5.44735C16.2712 5.43519 16.2863 5.42012 16.3048 5.40504C16.4835 5.25941 16.6046 5.14733 16.6622 5.06563C16.7471 4.94455 16.7439 4.81107 16.653 4.6596C16.5893 4.55652 16.4592 4.38073 16.2561 4.13249C16.2561 4.12933 16.2532 4.12933 16.2532 4.12642C16.0531 3.88085 15.9077 3.71431 15.8197 3.63237C15.6925 3.51129 15.5621 3.4809 15.4289 3.53852C15.3562 3.56892 15.2592 3.63237 15.1381 3.7233C15.1047 3.75078 15.0653 3.78093 15.026 3.81424C14.9776 3.85362 14.9318 3.89009 14.8893 3.92632C14.7804 4.02333 14.7018 4.09919 14.6593 4.15972C14.5741 4.2808 14.5773 4.41428 14.6683 4.56575C14.7108 4.63529 14.7864 4.73838 14.8893 4.87477C14.944 4.94139 15.0016 5.01409 15.0683 5.09894C15.0926 5.12617 15.1169 5.15656 15.1381 5.18379C15.3046 5.38365 15.4228 5.52005 15.5016 5.59274C15.6288 5.71406 15.7591 5.74421 15.8955 5.68659C15.9775 5.65036 16.0986 5.56867 16.2532 5.44735Z" fill="#ED3224"/>
<path fill-rule="evenodd" clip-rule="evenodd" d="M16.5813 7.1469C16.648 7.12866 16.7452 7.09219 16.8722 7.03165L17.048 6.94996L17.6754 6.65893L17.4845 6.24707L17.048 6.44984L16.6876 6.61979C16.6297 6.64678 16.5874 6.66209 16.5634 6.66817C16.539 6.67425 16.5176 6.67109 16.4965 6.66209C16.4481 6.6407 16.3936 6.55609 16.3238 6.4107C16.2905 6.34383 16.2694 6.28621 16.2572 6.24099C16.245 6.19236 16.2419 6.1593 16.2482 6.13498C16.2511 6.12891 16.254 6.12575 16.2572 6.11967C16.2662 6.10459 16.2784 6.09244 16.2966 6.08028C16.3178 6.06521 16.3661 6.04089 16.442 6.00467L16.2572 5.61079L16.2511 5.59572C16.1906 5.61979 16.1451 5.64094 16.1089 5.65918C16.0238 5.69856 15.9574 5.73503 15.9117 5.76834C15.8059 5.85003 15.7662 5.9592 15.7935 6.09535C15.8178 6.20768 15.8813 6.37714 15.9875 6.60447C16.0753 6.79241 16.1483 6.92565 16.2057 7.00126C16.2236 7.02266 16.239 7.04065 16.2572 7.05888C16.3027 7.10143 16.3481 7.13182 16.3997 7.1469C16.4571 7.16197 16.5176 7.16197 16.5813 7.1469Z" fill="#ED3224"/>
<path fill-rule="evenodd" clip-rule="evenodd" d="M16.9295 7.68397C16.9568 7.67473 16.9933 7.66281 17.0416 7.65357C17.066 7.64774 17.0932 7.64142 17.1236 7.6385C17.2719 7.61127 17.3719 7.60227 17.4234 7.61127C17.475 7.62027 17.5144 7.65066 17.5387 7.7022C17.5601 7.74742 17.5902 7.8899 17.6328 8.12622C17.669 8.3324 17.687 8.46563 17.6902 8.52009C17.6933 8.5748 17.678 8.6171 17.6508 8.6475C17.6296 8.66865 17.5963 8.6898 17.5479 8.70487C17.4993 8.72019 17.4234 8.73818 17.3176 8.75642C17.2294 8.77174 17.163 8.77781 17.1236 8.77781C17.09 8.77465 17.063 8.76566 17.0416 8.7535C17.0358 8.74742 17.0295 8.74426 17.0266 8.73818C16.9993 8.71411 16.9779 8.67473 16.9599 8.61419C16.9417 8.55656 16.9174 8.4384 16.887 8.2597C16.8537 8.06884 16.8357 7.93828 16.8328 7.86875C16.8264 7.77781 16.86 7.71727 16.9295 7.68397ZM16.9446 9.24122C16.9721 9.24414 17.0054 9.24414 17.0416 9.24414C17.1418 9.24122 17.2719 9.22615 17.4356 9.19576C17.6659 9.15637 17.8263 9.11407 17.9173 9.07176C18.0479 9.00806 18.1113 8.88965 18.1053 8.71411C18.0994 8.59279 18.069 8.37178 18.0114 8.05669C17.9569 7.74134 17.9115 7.52326 17.8752 7.40825C17.8205 7.24147 17.7206 7.15078 17.5749 7.13862C17.475 7.12938 17.3145 7.1447 17.09 7.18409C17.0752 7.18409 17.0567 7.187 17.0416 7.19017C16.8328 7.22955 16.6871 7.2687 16.6022 7.30833C16.469 7.37178 16.4082 7.49311 16.4145 7.66573C16.4203 7.78705 16.4507 8.00806 16.5055 8.32632C16.5628 8.64142 16.6086 8.85659 16.6448 8.97159C16.6963 9.13814 16.7963 9.22907 16.9446 9.24122Z" fill="#ED3224"/>
<path fill-rule="evenodd" clip-rule="evenodd" d="M6.05724 2.79971C6.04508 2.83302 6.01177 2.86949 5.96338 2.9028C5.91183 2.93902 5.80897 2.99981 5.64799 3.08758C5.4785 3.18143 5.36324 3.24197 5.29977 3.26628C5.21491 3.30275 5.14512 3.29059 5.09357 3.23297C5.06657 3.20282 5.02985 3.14812 4.98463 3.06642C4.95739 3.01488 4.93307 2.96941 4.91484 2.93003C4.88468 2.86949 4.86645 2.82402 4.86037 2.79071C4.85113 2.73917 4.86936 2.6937 4.91192 2.65432C4.91192 2.6514 4.91192 2.6514 4.91484 2.6514C4.95447 2.61493 5.07557 2.53907 5.28153 2.42699C5.46342 2.3239 5.58161 2.26336 5.63607 2.24221C5.68738 2.22397 5.72994 2.22106 5.76641 2.23929C5.79681 2.25145 5.82696 2.27868 5.85736 2.31807C5.88775 2.35745 5.9269 2.42407 5.98137 2.51792C6.02393 2.59669 6.05141 2.65723 6.06332 2.69686C6.07232 2.73309 6.07232 2.76932 6.05724 2.79971ZM6.49057 2.524C6.4575 2.44838 6.41178 2.36353 6.35731 2.26336C6.24497 2.06035 6.15135 1.92103 6.08156 1.8515C5.9787 1.74549 5.8452 1.7241 5.68155 1.7878C5.56945 1.83326 5.37248 1.93319 5.0904 2.08782C5.02718 2.12405 4.96931 2.15736 4.91484 2.19066C4.81489 2.24537 4.73003 2.29691 4.6634 2.33922C4.60577 2.37544 4.56054 2.40584 4.52382 2.42991C4.38448 2.53615 4.33001 2.66039 4.36649 2.80287C4.38765 2.89988 4.45427 3.04819 4.56637 3.24513C4.59969 3.30883 4.63325 3.36329 4.6634 3.41167C4.73319 3.52983 4.79374 3.61469 4.84529 3.66623C4.86645 3.68738 4.89052 3.70562 4.91484 3.72093C5.00578 3.7754 5.11496 3.77831 5.24214 3.72677C5.35716 3.68446 5.55437 3.58138 5.83912 3.42383C6.11487 3.27236 6.30284 3.15736 6.40279 3.08442C6.4361 3.06035 6.4665 3.03287 6.49057 3.00272C6.56328 2.91787 6.58759 2.82086 6.56012 2.71486C6.5482 2.66331 6.52388 2.60277 6.49057 2.524Z" fill="#ED3224"/>
<path fill-rule="evenodd" clip-rule="evenodd" d="M12.2187 1.30309C12.1399 1.26686 11.9913 1.21823 11.7822 1.15769C11.4853 1.07284 11.2854 1.02421 11.1852 1.00914C11.0824 0.996984 11.0036 1.00914 10.9399 1.04853C10.8611 1.09691 10.7974 1.2 10.7522 1.36363C10.7096 1.5061 10.7064 1.61502 10.7429 1.6938C10.7643 1.73926 10.8005 1.77865 10.8521 1.81196C10.9036 1.84235 10.9793 1.87566 11.0824 1.90897C11.1368 1.9272 11.2519 1.96343 11.4277 2.02397C11.5974 2.08184 11.7095 2.11806 11.7642 2.1363C11.8338 2.15745 11.8792 2.1786 11.8975 2.19684C11.9157 2.21799 11.9189 2.2513 11.9067 2.29385C11.8885 2.35147 11.8642 2.38162 11.8279 2.3877C11.8034 2.39086 11.7732 2.3877 11.7338 2.3787C11.6973 2.36946 11.5855 2.33931 11.4034 2.28777C11.2278 2.23622 11.1215 2.20292 11.0885 2.19076C11.0583 2.1786 11.0337 2.16353 11.0157 2.14529C10.9914 2.11515 10.9914 2.06652 11.0126 1.99698L10.5914 1.87566L10.5703 1.94228C10.5399 2.04537 10.5309 2.12414 10.5369 2.1786C10.5428 2.23622 10.5671 2.28777 10.6128 2.33323C10.6549 2.37554 10.7278 2.41784 10.8278 2.46039C10.9277 2.49978 11.0824 2.55132 11.2976 2.61186C11.5551 2.68772 11.7307 2.73319 11.8279 2.75142C11.9189 2.76941 11.9913 2.77233 12.0458 2.76042C12.1034 2.75142 12.1521 2.72711 12.1915 2.68772C12.2457 2.6301 12.2946 2.53625 12.3308 2.40277C12.3612 2.29993 12.3734 2.21799 12.367 2.15745C12.3612 2.09375 12.3366 2.04245 12.2946 1.99382C12.2549 1.95444 12.1973 1.92113 12.1246 1.88782C12.049 1.85743 11.8975 1.80296 11.667 1.73027C11.3944 1.6425 11.2429 1.59095 11.2125 1.57272C11.1762 1.54841 11.1641 1.51218 11.1794 1.46355C11.1945 1.40909 11.2215 1.38478 11.2672 1.38478C11.3097 1.38478 11.4245 1.40909 11.6096 1.46355C11.7642 1.50902 11.8642 1.53941 11.9096 1.55448C11.9551 1.57272 11.9884 1.58779 12.0035 1.60603C12.0157 1.61818 12.0215 1.63326 12.0247 1.64833C12.0247 1.66657 12.0215 1.6938 12.0096 1.73343L12.4339 1.85451C12.4429 1.8212 12.449 1.7998 12.4519 1.78789C12.4913 1.65757 12.4913 1.56056 12.458 1.49078C12.4247 1.42125 12.3459 1.36047 12.2187 1.30309Z" fill="#ED3224"/>
<path fill-rule="evenodd" clip-rule="evenodd" d="M7.97274 1.0124L8.23342 2.09118L8.18795 2.10017L7.1788 1.19718L6.48504 1.35789L6.40625 1.37613L6.48504 1.72162L6.73963 2.82422L7.18804 2.72137L6.93052 1.6426L6.97575 1.63044L7.98782 2.53659L8.75478 2.35765L8.42139 0.909558L7.97274 1.0124Z" fill="#ED3224"/>
<path fill-rule="evenodd" clip-rule="evenodd" d="M8.83203 2.3573L10.4834 2.3877L10.4895 2.03005L9.28043 2.0089L9.28651 1.76966L10.426 1.79056L10.4289 1.46355L9.28968 1.44216L9.29551 1.22723L10.4958 1.24838L10.5016 0.899974L8.85635 0.872743L8.83203 2.3573Z" fill="#ED3224"/>
</svg>
