<svg width="21" height="21" viewBox="0 0 21 21" fill="none" xmlns="http://www.w3.org/2000/svg">
<path d="M20.7369 10.246C21.1176 9.81352 21.0808 9.15069 20.6548 8.76589L11.2697 0.283386C10.8437 -0.101411 10.1607 -0.0933501 9.74367 0.301558L0.326609 9.21815C-0.0904147 9.61306 -0.110883 10.275 0.281293 10.6961L0.517392 10.9501C0.909088 11.3712 1.54222 11.4214 1.93063 11.0619L2.63441 10.4109V19.9418C2.63441 20.5266 3.09312 21 3.65883 21H7.32963C7.89534 21 8.35405 20.5266 8.35405 19.9418V13.274H13.0362V19.9418C13.028 20.5262 13.4328 20.9996 13.9985 20.9996H17.8886C18.4544 20.9996 18.9131 20.5262 18.9131 19.9414V10.5451C18.9131 10.5451 19.1075 10.721 19.3473 10.9387C19.5867 11.156 20.0895 10.9818 20.4701 10.5489L20.7369 10.246Z" fill="#FFD91B"/>
</svg>
