<svg width="21" height="21" viewBox="0 0 21 21" fill="none" xmlns="http://www.w3.org/2000/svg">
<path fill-rule="evenodd" clip-rule="evenodd" d="M10.2656 0C4.5957 0 0 4.59766 0 10.2693C0 15.9407 4.5957 20.5386 10.2656 20.5386C15.9355 20.5386 20.5312 15.9407 20.5312 10.2693C20.5312 4.59766 15.9355 0 10.2656 0ZM8.00977 4.82544C8.59375 4.79883 8.7793 4.79224 10.2676 4.79224C11.752 4.79224 11.9375 4.79883 12.5215 4.82544C13.1055 4.85205 13.5039 4.94434 13.8516 5.07983C14.2129 5.21948 14.5176 5.40674 14.8223 5.71143C15.127 6.01587 15.3145 6.32129 15.4531 6.68164C15.5879 7.02979 15.6816 7.42773 15.709 8.01099C15.7344 8.59497 15.7422 8.78174 15.7422 10.2693C15.7422 11.7566 15.7344 11.9429 15.709 12.5271C15.6816 13.1099 15.5879 13.5081 15.4531 13.8564C15.3145 14.2166 15.127 14.522 14.8223 14.8264C14.5176 15.1311 14.2129 15.3188 13.8535 15.4587C13.5039 15.594 13.1055 15.6865 12.5234 15.7131C11.9395 15.7397 11.7539 15.7461 10.2656 15.7461C8.7793 15.7461 8.5918 15.7397 8.00781 15.7131C7.42578 15.6865 7.02734 15.594 6.67969 15.4587C6.32031 15.3188 6.01367 15.1311 5.70898 14.8264C5.40625 14.522 5.21875 14.2166 5.07812 13.8562C4.94336 13.5081 4.85156 13.1101 4.82422 12.5271C4.79688 11.9429 4.79102 11.7566 4.79102 10.2693C4.79102 8.78174 4.79883 8.59497 4.82422 8.01074C4.84961 7.42798 4.94336 7.02979 5.07812 6.6814C5.21875 6.32129 5.40625 6.01587 5.71094 5.71143C6.01367 5.40674 6.32031 5.21973 6.67969 5.07983C7.0293 4.94434 7.42578 4.85205 8.00977 4.82544Z" fill="white"/>
<path fill-rule="evenodd" clip-rule="evenodd" d="M3.99805 6.26964e-06H4.48828C5.95117 6.26964e-06 6.12305 0.00513322 6.70117 0.0315004C7.23438 0.0559145 7.52539 0.145026 7.7168 0.219977C7.97266 0.319342 8.1543 0.437995 8.34766 0.629645C8.53906 0.821295 8.65625 1.00391 8.75586 1.25953C8.83203 1.4524 8.91992 1.74219 8.94531 2.27613C8.9707 2.85352 8.97656 3.02686 8.97656 4.48853C8.97656 5.9502 8.9707 6.12379 8.94531 6.70118C8.91992 7.23511 8.83203 7.52491 8.75586 7.71778C8.6582 7.97339 8.53906 8.15528 8.34766 8.34693C8.1543 8.53858 7.97266 8.65723 7.7168 8.7566C7.52539 8.83179 7.23438 8.92091 6.70117 8.94532C6.12305 8.97144 5.95117 8.9773 4.48828 8.9773C3.02734 8.9773 2.85352 8.97144 2.27539 8.94532C1.74219 8.92066 1.45312 8.83131 1.25977 8.75635C1.00391 8.65723 0.822266 8.53858 0.628906 8.34693C0.4375 8.15504 0.320312 7.97291 0.220703 7.71729C0.144531 7.52442 0.0566406 7.23463 0.03125 6.70069C0.00585938 6.1233 0 5.94996 0 4.48731C0 3.02466 0.00585938 2.85206 0.03125 2.27491C0.0566406 1.74073 0.144531 1.45093 0.220703 1.25782C0.318359 1.0022 0.4375 0.81983 0.628906 0.627936C0.822266 0.436286 1.00391 0.317633 1.25977 0.218268C1.45312 0.142829 1.74219 0.0539613 2.27539 0.0293031C2.78125 0.00659807 2.97656 -0.000237871 3.99805 6.26964e-06ZM7.41016 0.909674C7.04883 0.909674 6.75391 1.20362 6.75391 1.56666C6.75391 1.92945 7.04883 2.22388 7.41016 2.22388C7.77344 2.22388 8.06836 1.92945 8.06836 1.56666C8.06836 1.20386 7.77344 0.90943 7.41016 0.909674ZM1.67578 4.49024C1.67578 2.93677 2.93555 1.6775 4.48828 1.6775C6.04102 1.6775 7.29883 2.93677 7.29883 4.49024C7.29883 6.04346 6.04102 7.30225 4.48828 7.30225C2.93555 7.30225 1.67578 6.04346 1.67578 4.49024Z" transform="translate(5.77734 5.7793)" fill="white"/>
<path fill-rule="evenodd" clip-rule="evenodd" d="M1.82507 0C2.83297 0 3.65014 0.817325 3.65014 1.82566C3.65014 2.83388 2.83297 3.65132 1.82507 3.65132C0.817062 3.65132 0 2.83388 0 1.82566C0 0.817325 0.817062 0 1.82507 0V0Z" transform="translate(8.43945 8.44336)" fill="white"/>
</svg>
