<svg width="21" height="21" viewBox="0 0 21 21" fill="none" xmlns="http://www.w3.org/2000/svg">
<path fill-rule="evenodd" clip-rule="evenodd" d="M10.2656 0C4.5957 0 0 4.59766 0 10.2693C0 15.9407 4.5957 20.5386 10.2656 20.5386C15.9355 20.5386 20.5312 15.9407 20.5312 10.2693C20.5312 4.59766 15.9355 0 10.2656 0ZM4.10547 9.81274C4.10547 6.66187 6.86328 4.10767 10.2656 4.10767C13.666 4.10767 16.4238 6.66187 16.4238 9.81274C16.4238 12.9636 13.666 15.5178 10.2656 15.5178C9.65039 15.5178 9.05859 15.4343 8.49805 15.2793L6.40039 16.4307V14.2554C5.00195 13.2097 4.10547 11.6082 4.10547 9.81274Z" fill="white"/>
<path fill-rule="evenodd" clip-rule="evenodd" d="M4.55663 3.42308L3.01265 1.82079L0 3.42308L3.31391 0L4.89555 1.60229L7.87054 0L4.55663 3.42308Z" transform="translate(6.1582 8.21533)" fill="white"/>
</svg>
