<svg width="21" height="18" viewBox="0 0 21 18" fill="none" xmlns="http://www.w3.org/2000/svg">
<path d="M0 2.15385V15.2727C0 16.472 0.979021 17.4266 2.15385 17.4266H4.5035V4.66834e-08H2.15385C0.954545 4.66834e-08 0 0.979021 0 2.15385ZM3.08392 14.6119C3.08392 14.8811 2.86364 15.0769 2.61888 15.0769H1.88462C1.61538 15.0769 1.41958 14.8566 1.41958 14.6119V12.3846C1.41958 12.1154 1.63986 11.9196 1.88462 11.9196H2.61888C2.88811 11.9196 3.08392 12.1399 3.08392 12.3846V14.6119ZM3.08392 9.81469C3.08392 10.0839 2.86364 10.2797 2.61888 10.2797H1.88462C1.61538 10.2797 1.41958 10.0594 1.41958 9.81469V7.58741C1.41958 7.31818 1.63986 7.12238 1.88462 7.12238H2.61888C2.88811 7.12238 3.08392 7.34266 3.08392 7.58741V9.81469ZM3.08392 2.81469V5.04196C3.08392 5.31119 2.86364 5.50699 2.61888 5.50699H1.88462C1.61538 5.50699 1.41958 5.28671 1.41958 5.04196V2.81469C1.41958 2.54545 1.63986 2.34965 1.88462 2.34965H2.61888C2.86364 2.34965 3.08392 2.56993 3.08392 2.81469Z" fill="#FFD91B"/>
<path d="M0 17.4266H10.5V4.66834e-08H0V17.4266ZM2.56993 8.71329V6.33916C2.56993 6.24126 2.59441 6.11888 2.64336 6.02098C2.81469 5.72727 3.18182 5.62937 3.47552 5.8007L5.53147 6.97552L7.58741 8.15035C7.68531 8.1993 7.75874 8.27273 7.80769 8.37063C7.97902 8.66434 7.88112 9.03147 7.58741 9.2028L5.55594 10.3776V10.4266L3.52448 11.6014C3.42657 11.6748 3.3042 11.6993 3.18182 11.6993C2.83916 11.6993 2.56993 11.4301 2.56993 11.0874V8.71329Z" transform="translate(5.2627)" fill="#FFD91B"/>
<path d="M2.34965 4.66834e-08H3.73467e-07V17.4266H2.34965C3.54895 17.4266 4.5035 16.4476 4.5035 15.2727V2.15385C4.5035 0.979021 3.54895 4.66834e-08 2.34965 4.66834e-08ZM3.03497 14.6119C3.03497 14.8811 2.81469 15.0769 2.56993 15.0769H1.83566C1.56643 15.0769 1.37063 14.8566 1.37063 14.6119V12.3846C1.37063 12.1154 1.59091 11.9196 1.83566 11.9196H2.56993C2.83916 11.9196 3.03497 12.1399 3.03497 12.3846V14.6119ZM3.03497 9.81469C3.03497 10.0839 2.81469 10.2797 2.56993 10.2797H1.83566C1.56643 10.2797 1.37063 10.0594 1.37063 9.81469V7.58741C1.37063 7.31818 1.59091 7.12238 1.83566 7.12238H2.56993C2.83916 7.12238 3.03497 7.34266 3.03497 7.58741V9.81469ZM3.03497 5.04196C3.03497 5.31119 2.81469 5.50699 2.56993 5.50699H1.83566C1.56643 5.50699 1.37063 5.28671 1.37063 5.04196V2.81469C1.37063 2.54545 1.59091 2.34965 1.83566 2.34965H2.56993C2.83916 2.34965 3.03497 2.56993 3.03497 2.81469V5.04196Z" transform="translate(16.4961)" fill="#FFD91B"/>
</svg>
