<svg width="21" height="21" viewBox="0 0 21 21" fill="none" xmlns="http://www.w3.org/2000/svg">
<path fill-rule="evenodd" clip-rule="evenodd" d="M10.2656 0C4.5957 0 0 4.59766 0 10.2693C0 15.9407 4.5957 20.5386 10.2656 20.5386C15.9355 20.5386 20.5312 15.9407 20.5312 10.2693C20.5312 4.59766 15.9355 0 10.2656 0ZM9.98047 8.70215L9.95898 8.34668C9.89453 7.42578 10.4609 6.58472 11.3594 6.2583C11.6895 6.14233 12.248 6.12769 12.6152 6.22925C12.7598 6.27271 13.0312 6.41772 13.2246 6.54834L13.5781 6.7876L13.9648 6.66431C14.1797 6.59912 14.4688 6.49023 14.5977 6.41772C14.7188 6.35254 14.8262 6.31641 14.8262 6.33813C14.8262 6.46143 14.5605 6.88184 14.3379 7.11401C14.0371 7.44043 14.123 7.46924 14.7344 7.25171C15.0996 7.12842 15.1074 7.12842 15.0352 7.26636C14.9922 7.33887 14.7695 7.59253 14.5332 7.82471C14.1309 8.22363 14.1094 8.26709 14.1094 8.60059C14.1094 9.11548 13.8652 10.1887 13.6211 10.7761C13.168 11.8784 12.1992 13.0168 11.2285 13.5898C9.86523 14.3948 8.04883 14.5979 6.51953 14.1265C6.00977 13.967 5.13281 13.5608 5.13281 13.4883C5.13281 13.4666 5.39844 13.4375 5.7207 13.4304C6.39648 13.4158 7.07227 13.2273 7.64648 12.8938L8.0332 12.6616L7.58789 12.5093C6.95703 12.2917 6.38867 11.7915 6.24609 11.3201C6.20312 11.1677 6.2168 11.1604 6.61914 11.1604L7.03516 11.1533L6.68359 10.9866C6.26758 10.7761 5.88672 10.4209 5.69922 10.0581C5.56445 9.79712 5.39062 9.13721 5.44141 9.08643C5.45508 9.0647 5.60742 9.10815 5.7793 9.16626C6.27539 9.34766 6.33984 9.30396 6.05273 8.99951C5.51367 8.44824 5.34766 7.62891 5.60742 6.85303L5.72852 6.50488L6.20312 6.97632C7.17188 7.92627 8.31445 8.49194 9.62109 8.65869L9.98047 8.70215Z" fill="white"/>
</svg>
