<svg width="29" height="35" viewBox="0 0 29 35" fill="none" xmlns="http://www.w3.org/2000/svg">
<path d="M9.75747 0.0806256L4.93211 2.12948C4.93211 2.12948 4.13739 2.41405 3.62647 3.77996C3.05878 5.14587 0.106754 11.8616 0.106754 11.8616C0.106754 11.8616 -0.347383 12.5446 0.617688 12.9999C1.58276 13.5121 4.08058 14.5365 4.36442 14.5934C4.70503 14.6503 4.98892 14.1381 5.04569 13.9674C5.10246 13.7966 6.18107 11.4063 6.46491 11.2355C6.57845 15.504 6.35139 25.4069 6.12431 28.0248C5.89724 30.6428 5.32955 32.3502 6.12431 32.6917C6.91908 33.0332 9.47368 33.4316 15.2073 33.4316C20.941 33.4316 22.5305 32.8055 22.5305 32.8055C22.5305 32.8055 23.2685 32.6917 22.9846 31.6673C22.7008 30.6429 22.5305 28.4802 22.417 27.2281C22.3034 25.9191 22.1899 11.9754 22.1899 10.951C22.8143 12.1461 23.8362 13.9105 23.9497 14.252C24.0632 14.6503 24.5742 14.7072 25.4825 14.4227C26.4476 14.0812 28.6615 12.9429 28.6048 12.3738C28.548 11.8047 26.7881 8.10533 26.5043 7.25164C26.1637 6.39794 25.4825 3.95071 24.3471 2.75554C23.155 1.56037 20.3733 0.76358 19.5785 0.36519C18.7837 -0.0332002 18.5566 0.0806256 18.5566 0.0806256C18.5566 0.0806256 16.74 0.592856 14.0151 0.592856C11.4038 0.592856 10.3252 -0.260852 9.75747 0.0806256Z" transform="translate(0.130859 1.36816)" fill="#2B3990"/>
<path d="M0 0.627591C0 0.627591 0.397396 -0.226082 1.07862 0.115395C1.81662 0.456873 3.1223 0.513758 4.20091 0.513758C5.27952 0.513758 7.43671 0.0584616 7.43671 0.0584616C7.43671 0.0584616 8.11795 -0.282995 8.51533 0.684524C8.51533 0.79835 8.51533 0.798322 8.51533 0.798322C8.51533 0.798322 6.75548 1.31055 4.03058 1.31055C1.36244 1.25364 0 0.627591 0 0.627591Z" transform="translate(10.2852 0.70752)" fill="#1C75BC"/>
<path d="M0.111932 0C0.111932 0 1.07699 0.682969 2.43944 1.36592C3.8019 2.04888 4.93729 2.27652 4.93729 2.27652C4.93729 2.27652 4.65344 2.78873 4.3696 2.73181C4.08575 2.61799 1.87173 1.76431 1.41758 1.53666C0.963424 1.309 0.225456 0.967533 0.168688 0.796795C0.0551497 0.626056 -0.115143 0.341477 0.111932 0Z" transform="translate(0.181641 13.2861)" fill="#1C75BC"/>
<path d="M4.59827 0C4.59827 0 3.80349 0.626014 3.2358 0.967491C2.61134 1.30897 1.24892 2.10576 0 2.21958C0.113538 2.56106 0.510865 2.78872 1.07855 2.61798C1.70301 2.44724 2.78168 2.04886 3.40613 1.59355C4.08736 1.13825 4.71179 0.682948 4.65502 0.455296C4.65502 0.113819 4.59827 0 4.59827 0Z" transform="translate(24.1367 13.3438)" fill="#1C75BC"/>
</svg>
