<svg width="746" height="396" viewBox="0 0 746 396" fill="none" xmlns="http://www.w3.org/2000/svg">
<path d="M746 0H0V396H746V0Z" fill="#313445"/>
<path d="M88.5027 0H0V396H88.5027V0Z" transform="translate(48.9941)" fill="#2A2E3C"/>
<path d="M88.5027 0H0V396H88.5027V0Z" transform="translate(188.645)" fill="#2A2E3C"/>
<path d="M88.5027 0H0V396H88.5027V0Z" transform="translate(324.945)" fill="#2A2E3C"/>
<path d="M88.5027 0H0V396H88.5027V0Z" transform="translate(464.596)" fill="#2A2E3C"/>
<path d="M88.5026 0H0V396H88.5026V0Z" transform="translate(608.449)" fill="#2A2E3C"/>
<path d="M727.266 0H707.624H20.4368H0.737995C0.340613 0 0 0.341479 0 0.739869V20.4317V110.07V157.137V218.659V264.645V354.681V374.373C0 374.771 0.340613 375.113 0.737995 375.113H20.38H20.4368H707.567H727.21C727.607 375.113 727.948 374.771 727.948 374.373V354.681V264.702V218.716V157.137V110.07V20.4886V0.796786C728.004 0.341483 727.664 0 727.266 0ZM21.1748 373.69C20.7774 362.99 12.2053 354.397 1.53276 353.998V265.442H90.3761C90.7735 265.442 91.1141 265.1 91.1141 264.702V216.098C98.6076 215.358 104.341 203.35 104.341 188.154C104.341 172.958 98.6076 161.007 91.1141 160.21V110.07C91.1141 109.671 90.7735 109.33 90.3761 109.33H1.53276V21.1716C12.2053 20.7732 20.7774 12.1794 21.1748 1.47974H359.517V130.274C328.749 130.672 303.827 155.884 303.827 186.845C303.827 217.806 328.749 243.018 359.517 243.416V373.69H21.1748ZM91.1141 161.69C97.6425 162.543 102.808 174.04 102.808 188.154C102.808 202.212 97.6425 213.765 91.1141 214.619V161.69ZM89.5813 160.893V215.415V263.962H1.53276V219.456H35.5373C35.9347 219.456 36.2753 219.115 36.2753 218.716V157.137C36.2753 156.738 35.9347 156.397 35.5373 156.397H1.53276V110.866H89.6381V160.893H89.5813ZM1.53276 157.876H34.7426V217.919H1.53276V157.876ZM359.461 241.994C329.487 241.595 305.246 217.066 305.246 186.902C305.246 156.795 329.487 132.209 359.461 131.81V241.994ZM360.993 131.81C390.967 132.209 415.208 156.738 415.208 186.902C415.208 217.009 390.967 241.595 360.993 241.994V131.81ZM360.993 243.473C391.762 243.075 416.684 217.863 416.684 186.902C416.684 155.941 391.762 130.729 360.993 130.331V1.47974H706.886C707.284 12.1794 715.856 20.7732 726.528 21.1716V109.33H637.628C637.231 109.33 636.89 109.671 636.89 110.07V160.21C629.397 160.95 623.663 172.958 623.663 188.154C623.663 203.35 629.397 215.301 636.89 216.098V264.702C636.89 265.1 637.231 265.442 637.628 265.442H726.471V353.998C715.799 354.397 707.227 362.99 706.829 373.69H360.993V243.473ZM726.471 156.397H692.467C692.07 156.397 691.729 156.738 691.729 157.137V218.659C691.729 219.058 692.07 219.399 692.467 219.399H726.471V263.905H638.366V215.358V160.836V110.753H726.471V156.397ZM726.471 217.919H693.262V157.876H726.528V217.919H726.471ZM636.89 214.619C630.362 213.765 625.196 202.268 625.196 188.154C625.196 174.097 630.362 162.543 636.89 161.69V214.619ZM726.471 1.47974V19.6919C716.65 19.2935 708.703 11.3826 708.305 1.47974H726.471ZM1.53276 1.47974H19.6988C19.3014 11.3257 11.4105 19.2935 1.53276 19.6919V1.47974ZM1.53276 373.69V355.478C11.3538 355.876 19.3014 363.787 19.6988 373.69H1.53276ZM726.471 373.69H708.305C708.703 363.844 716.594 355.876 726.471 355.478V373.69Z" transform="translate(9 10.415)" fill="white"/>
<path d="M2.3843 4.78068C3.70111 4.78068 4.76859 3.7105 4.76859 2.39035C4.76859 1.0702 3.70111 0 2.3843 0C1.06749 0 0 1.0702 0 2.39035C0 3.7105 1.06749 4.78068 2.3843 4.78068Z" transform="translate(74 196)" fill="white"/>
<path d="M2.38433 4.78068C3.70114 4.78068 4.7686 3.7105 4.7686 2.39035C4.7686 1.0702 3.70114 0 2.38433 0C1.06753 0 0 1.0702 0 2.39035C0 3.7105 1.06753 4.78068 2.38433 4.78068Z" transform="translate(666.238 196)" fill="white"/>
</svg>
