<svg width="29" height="35" viewBox="0 0 29 35" fill="none" xmlns="http://www.w3.org/2000/svg">
<path d="M9.7575 0.100842L4.93214 2.14971C4.93214 2.14971 4.13735 2.43427 3.62643 3.80018C3.05874 5.16609 0.106787 11.8818 0.106787 11.8818C0.106787 11.8818 -0.347419 12.5648 0.617652 13.0201C1.58272 13.5323 4.08061 14.5567 4.36445 14.6136C4.70507 14.6705 4.98888 14.1583 5.04565 13.9876C5.10242 13.8168 6.18103 11.4265 6.46488 11.2558C6.57841 15.5242 6.35135 25.4271 6.12428 28.0451C5.8972 30.6631 5.32951 32.3705 6.12428 32.7119C6.91904 33.0534 9.47364 33.4518 15.2073 33.4518C20.941 33.4518 22.5305 32.8258 22.5305 32.8258C22.5305 32.8258 23.2685 32.712 22.9846 31.6875C22.7008 30.6631 22.5305 28.5004 22.4169 27.2483C22.3034 25.9393 22.1898 11.9956 22.1898 10.9712C22.8143 12.1664 23.8362 13.9307 23.9497 14.2722C24.0633 14.6705 24.5742 14.7275 25.4825 14.4429C26.4475 14.1014 28.6615 12.9632 28.6047 12.394C28.548 11.8249 26.7882 8.12556 26.5043 7.27187C26.1637 6.41818 25.4825 3.97093 24.3471 2.77576C23.2117 1.58058 20.3732 0.783797 19.5785 0.385407C18.7837 -0.0129838 18.5567 0.100842 18.5567 0.100842C18.5567 0.100842 16.7401 0.613055 14.0152 0.613055C11.4038 0.613055 10.3252 -0.297548 9.7575 0.100842Z" transform="translate(0.121094 0.906738)" fill="#D1D3D4"/>
<path d="M0 0.627604C0 0.627604 0.397396 -0.226104 1.07862 0.115374C1.81662 0.456851 3.1223 0.513771 4.20091 0.513771C5.27952 0.513771 7.43671 0.0584746 7.43671 0.0584746C7.43671 0.0584746 8.11795 -0.283017 8.51533 0.684503C8.51533 0.798328 8.51533 0.798335 8.51533 0.798335C8.51533 0.798335 6.75548 1.31055 4.03058 1.31055C1.36244 1.19672 0 0.627604 0 0.627604Z" transform="translate(10.2754 0.266113)" fill="#808285"/>
<path d="M0.111932 0C0.111932 0 1.07699 0.682951 2.43944 1.36591C3.8019 2.04886 4.93729 2.27652 4.93729 2.27652C4.93729 2.27652 4.65344 2.78873 4.3696 2.73181C4.08575 2.61799 1.87173 1.76429 1.41758 1.53664C0.963424 1.30899 0.225456 0.967516 0.168688 0.796777C0.0551497 0.626038 -0.115143 0.341477 0.111932 0Z" transform="translate(0.171875 12.8447)" fill="#808285"/>
<path d="M4.59827 0C4.59827 0 3.80349 0.626031 3.2358 0.967509C2.61134 1.30899 1.24892 2.10577 0 2.2196C0.113538 2.56108 0.510934 2.78872 1.07862 2.61798C1.70308 2.44724 2.78168 2.04886 3.40613 1.59355C4.08736 1.13825 4.71179 0.682948 4.65502 0.455296C4.65502 0.170732 4.59827 0 4.59827 0Z" transform="translate(24.127 12.8447)" fill="#808285"/>
</svg>
