<svg width="29" height="35" viewBox="0 0 29 35" fill="none" xmlns="http://www.w3.org/2000/svg">
<path d="M9.75747 0.100841L4.93212 2.14969C4.93212 2.14969 4.13734 2.43427 3.62642 3.80018C3.05873 5.16609 0.106763 11.8818 0.106763 11.8818C0.106763 11.8818 -0.347392 12.5648 0.617679 13.0201C1.58275 13.5323 4.08059 14.5567 4.36443 14.6136C4.70504 14.6705 4.98888 14.1583 5.04565 13.9876C5.10241 13.8169 6.18102 11.4265 6.46487 11.2558C6.57841 15.5242 6.35134 25.4271 6.12427 28.0451C5.89719 30.6631 5.3295 32.3704 6.12427 32.7119C6.91903 33.0534 9.47362 33.4518 15.264 33.4518C20.9977 33.4518 22.5872 32.8258 22.5872 32.8258C22.5872 32.8258 23.3252 32.7119 23.0414 31.6875C22.7575 30.6631 22.5872 28.5004 22.4737 27.2483C22.3602 25.9393 22.2466 11.9956 22.2466 10.9712C22.8711 12.1664 23.8929 13.9307 24.0065 14.2722C24.12 14.6706 24.6309 14.7275 25.5392 14.4429C26.5043 14.1014 28.7183 12.9631 28.6615 12.394C28.6047 11.8249 26.8449 8.12555 26.5611 7.27185C26.2205 6.41816 25.5392 3.97092 24.4038 2.77575C23.2117 1.58058 20.43 0.783795 19.6353 0.385405C18.8405 -0.0129852 18.6134 0.100841 18.6134 0.100841C18.6134 0.100841 16.7968 0.613071 14.0719 0.613071C11.347 0.613071 10.2684 -0.29755 9.75747 0.100841Z" transform="translate(0 0.640625)" fill="#ED1C24"/>
<path d="M0 0.627591C0 0.627591 0.397396 -0.226082 1.07862 0.115395C1.81662 0.456873 3.1223 0.513758 4.20091 0.513758C5.33629 0.513758 7.43673 0.0584616 7.43673 0.0584616C7.43673 0.0584616 8.11795 -0.282995 8.51533 0.684524C8.51533 0.79835 8.51533 0.798322 8.51533 0.798322C8.51533 0.798322 6.7555 1.31055 4.03059 1.31055C1.36246 1.19673 0 0.627591 0 0.627591Z" transform="translate(10.1543)" fill="#F9ED32"/>
<path d="M0.13707 0C0.13707 0 1.10213 0.682969 2.46458 1.36592C3.82703 2.04888 4.96243 2.27652 4.96243 2.27652C4.96243 2.27652 4.67858 2.78873 4.39474 2.73181C4.11089 2.61799 1.8969 1.76431 1.44275 1.53666C0.988596 1.309 0.250594 0.967533 0.193825 0.796795C0.0802872 0.626056 -0.146775 0.341477 0.13707 0Z" transform="translate(0.0273438 12.5786)" fill="#F9ED32"/>
<path d="M4.59827 0C4.59827 0 3.80351 0.626049 3.23582 0.967526C2.61136 1.309 1.24892 2.10579 0 2.21962C0.113538 2.56109 0.510917 2.78875 1.07861 2.61801C1.70306 2.44728 2.78168 2.04886 3.40613 1.59355C4.08736 1.13825 4.71181 0.682948 4.65504 0.455296C4.59827 0.170732 4.59827 0 4.59827 0Z" transform="translate(24.0059 12.5786)" fill="#F9ED32"/>
</svg>
